<svg width="24" height="24" xmlns="http://www.w3.org/2000/svg">

 <g>
  <title>background</title>
  <rect fill="none" id="canvas_background" height="402" width="582" y="-1" x="-1"/>
 </g>
 <g>
  <title>Layer 1</title>
  <path fill="#e3e3e3" id="svg_2" d="m13.2,10.4l1.3,0.7c0.1,0.1 0.3,0.1 0.4,0l2.1,-0.7c0.2,-0.1 0.3,-0.3 0.3,-0.5l0,-1.2c0,-2.9 -2.3,-5.2 -5.3,-5.2c-3,0 -5.3,2.3 -5.3,5.2l0,6.7c0,0 0,0.9 -0.9,0.9c-0.9,0 -0.9,-0.9 -0.9,-0.9l0,-2.6c0,-0.3 -0.2,-0.5 -0.5,-0.5l-3.4,0c-0.3,0 -0.5,0.2 -0.5,0.5l0,2.6c0,2.9 2.4,5.2 5.4,5.2c2.9,0 5.2,-2.3 5.2,-5.2l0,-6.7c0,-0.6 0.2,-0.9 0.9,-0.9c0.6,0 0.9,0.3 0.9,0.9l0,1.3c0,0.1 0.1,0.3 0.3,0.4z"/>
  <path fill="#e3e3e3" id="svg_3" d="m23,12.2l-3.4,0c-0.3,0 -0.5,0.2 -0.5,0.5l0,2.7c0,0.1 0,0.9 -0.9,0.9c-0.9,0 -0.9,-0.7 -0.9,-0.9l0,-2.7c0,-0.2 -0.1,-0.3 -0.2,-0.4c-0.1,-0.1 -0.3,-0.1 -0.4,-0.1l-1.8,0.6l-1.2,-0.6c-0.2,-0.1 -0.3,-0.1 -0.5,0s-0.2,0.2 -0.2,0.4l0,2.7c0,2.9 2.2,5.1 5.1,5.1c3,0 5.4,-2.3 5.4,-5.2l0,-2.7c0,-0.1 -0.2,-0.3 -0.5,-0.3z"/>
 </g>
</svg>