<svg width="56.693" height="56.693" xmlns="http://www.w3.org/2000/svg">

 <g>
  <title>background</title>
  <rect fill="none" id="canvas_background" height="402" width="582" y="-1" x="-1"/>
 </g>
 <g>
  <title>Layer 1</title>
  <path fill="#00a99d" id="svg_1" d="m3.602,22.974l2.01,2.636c0,0 4.146,-3.267 5.528,-1.634c1.382,1.634 6.656,21.357 8.417,24.997c1.537,3.192 5.777,7.413 10.426,4.397c4.646,-3.014 20.098,-16.205 22.863,-31.781c2.764,-15.574 -18.594,-12.313 -20.854,1.256c5.652,-3.395 8.671,1.38 5.778,6.784c-2.889,5.399 -5.527,8.921 -6.908,8.921c-1.379,0 -2.441,-3.612 -4.021,-9.928c-1.635,-6.53 -1.624,-18.291 -8.416,-16.958c-6.406,1.257 -14.823,11.31 -14.823,11.31z"/>
 </g>
</svg>