<svg width="56.693000000000005" height="56.693000000000005" xmlns="http://www.w3.org/2000/svg">

 <g>
  <title>background</title>
  <rect fill="none" id="canvas_background" height="402" width="582" y="-1" x="-1"/>
 </g>
 <g>
  <title>Layer 1</title>
  <path fill="#00a99d" id="svg_1" fill-rule="evenodd" d="m52.43,24.152c-0.324,-1.588 -0.811,-3.152 -1.441,-4.646c-0.619,-1.467 -1.387,-2.879 -2.279,-4.199c-0.885,-1.309 -1.9,-2.539 -3.018,-3.656c-1.117,-1.119 -2.348,-2.135 -3.656,-3.018c-1.32,-0.895 -2.734,-1.66 -4.199,-2.281c-1.494,-0.629 -3.057,-1.117 -4.646,-1.439c-1.627,-0.334 -3.303,-0.504 -4.977,-0.504c-1.676,0 -3.35,0.17 -4.979,0.504c-1.588,0.322 -3.152,0.811 -4.645,1.439c-1.465,0.621 -2.879,1.387 -4.201,2.281c-1.309,0.883 -2.539,1.898 -3.656,3.018c-1.118,1.117 -2.132,2.348 -3.016,3.656c-0.893,1.32 -1.66,2.732 -2.279,4.199c-0.633,1.494 -1.118,3.058 -1.443,4.646c-0.333,1.625 -0.502,3.301 -0.502,4.976c0,1.678 0.169,3.354 0.502,4.98c0.325,1.588 0.811,3.152 1.442,4.645c0.619,1.465 1.387,2.881 2.279,4.201c0.884,1.309 1.898,2.537 3.016,3.656c1.117,1.117 2.348,2.131 3.656,3.016c1.322,0.893 2.736,1.66 4.201,2.279c1.492,0.633 3.057,1.115 4.645,1.441c1.629,0.336 3.303,0.504 4.979,0.504c1.674,0 3.35,-0.168 4.977,-0.504c1.59,-0.326 3.152,-0.809 4.646,-1.441c1.465,-0.619 2.879,-1.387 4.199,-2.279c1.309,-0.885 2.539,-1.898 3.656,-3.016c1.117,-1.119 2.133,-2.348 3.018,-3.656c0.893,-1.32 1.66,-2.736 2.279,-4.201c0.631,-1.492 1.117,-3.057 1.441,-4.645c0.334,-1.627 0.502,-3.303 0.502,-4.98c0.001,-1.675 -0.167,-3.351 -0.501,-4.976zm-3.114,4.767c-0.305,-0.066 -7.449,-1.604 -14.703,-0.692c-0.148,-0.361 -0.299,-0.725 -0.455,-1.09c-0.439,-1.033 -0.912,-2.057 -1.404,-3.062c8.338,-3.402 11.723,-8.297 11.762,-8.355c2.961,3.594 4.752,8.188 4.8,13.199zm-7.16,-15.634c-0.053,0.082 -3.059,4.658 -11.027,7.645c-3.609,-6.631 -7.574,-11.898 -7.891,-12.316c1.596,-0.387 3.26,-0.596 4.975,-0.596c5.346,0 10.223,1.992 13.943,5.267zm-19,-4.654c0,0.002 -0.004,0.004 -0.004,0.004s-0.023,0.006 -0.062,0.014c0.021,-0.006 0.045,-0.01 0.066,-0.018zm-3.951,1.404c0.281,0.377 4.186,5.67 7.84,12.164c-10.137,2.693 -18.934,2.588 -19.492,2.578c1.372,-6.539 5.765,-11.961 11.652,-14.742zm-12.103,19.093c0,-0.225 0.01,-0.445 0.018,-0.667c0.372,0.008 10.804,0.245 21.673,-3.008c0.605,1.184 1.184,2.387 1.713,3.589c-0.279,0.078 -0.557,0.162 -0.832,0.252c-11.393,3.682 -17.172,13.934 -17.172,13.934s0.008,0.006 0.008,0.01c-3.361,-3.741 -5.408,-8.686 -5.408,-14.11zm21.111,21.113c-5.109,0 -9.795,-1.816 -13.447,-4.838c0.277,0.225 0.473,0.369 0.473,0.369s4.047,-8.826 16.566,-13.188c0.047,-0.018 0.094,-0.031 0.141,-0.045c2.971,7.719 4.197,14.184 4.51,16.029c-2.534,1.078 -5.319,1.673 -8.243,1.673zm11.797,-3.601c-0.215,-1.275 -1.34,-7.471 -4.109,-15.08c6.814,-1.09 12.721,0.779 13.156,0.922c-0.94,5.882 -4.307,10.956 -9.047,14.158z" clip-rule="evenodd"/>
 </g>
</svg>