<svg xmlns="http://www.w3.org/2000/svg" width="28" height="15" viewBox="0 0 28 15"><g><g opacity=".4"><path fill="#00a99d" d="M3.386 3.318L.593 6.094a1.955 1.955 0 0 0 0 2.777l2.793 2.776a1.983 1.983 0 0 0 2.793 0l2.793-2.776a1.955 1.955 0 0 0 0-2.777L6.18 3.318a1.983 1.983 0 0 0-2.793 0z"/></g><g opacity=".7"><path fill="#00a99d" d="M11.249 1.93l-4.19 4.164a1.955 1.955 0 0 0 0 2.777l4.19 4.164a1.984 1.984 0 0 0 2.793 0l4.19-4.164a1.955 1.955 0 0 0 0-2.777l-4.19-4.164a1.984 1.984 0 0 0-2.793 0z"/></g><g><path fill="#00a99d" d="M19.073.542l-5.586 5.552a1.955 1.955 0 0 0 0 2.777l5.586 5.553a1.983 1.983 0 0 0 2.793 0l5.587-5.553a1.955 1.955 0 0 0 0-2.777L21.866.542a1.984 1.984 0 0 0-2.793 0z"/></g></g></svg>