<svg xmlns="http://www.w3.org/2000/svg" width="28" height="15" viewBox="0 0 28 15"><g><g opacity=".4"><path fill="#00a99d" d="M24.644 3.342l2.793 2.77a1.949 1.949 0 0 1 0 2.771l-2.793 2.771a1.986 1.986 0 0 1-2.793 0l-2.793-2.77a1.949 1.949 0 0 1 0-2.772l2.793-2.77a1.986 1.986 0 0 1 2.793 0z"/></g><g opacity=".7"><path fill="#00a99d" d="M16.782 1.957l4.19 4.155a1.949 1.949 0 0 1 0 2.771l-4.19 4.156a1.986 1.986 0 0 1-2.793 0l-4.19-4.156a1.949 1.949 0 0 1 0-2.77l4.19-4.156a1.987 1.987 0 0 1 2.793 0z"/></g><g><path fill="#00a99d" d="M8.957.572l5.586 5.54a1.949 1.949 0 0 1 0 2.771l-5.586 5.542a1.986 1.986 0 0 1-2.793 0L.578 8.883a1.949 1.949 0 0 1 0-2.77L6.164.571a1.987 1.987 0 0 1 2.793 0z"/></g></g></svg>